<?xml version="1.0" standalone="no"?>
<!DOCTYPE svg PUBLIC "-//W3C//DTD SVG 20010904//EN"
 "http://www.w3.org/TR/2001/REC-SVG-20010904/DTD/svg10.dtd">
<svg version="1.0" xmlns="http://www.w3.org/2000/svg"
 width="775.000000pt" height="775.000000pt" viewBox="0 0 775.000000 775.000000"
 preserveAspectRatio="xMidYMid meet">
<metadata>
Created by potrace 1.11, written by Peter Selinger 2001-2013
</metadata>
<g transform="translate(0.000000,775.000000) scale(0.100000,-0.100000)"
fill="#000000" stroke="none">
<path d="M1320 5565 l0 -1065 -285 0 -285 0 1 -22 c0 -13 42 -270 92 -573 l93
-550 192 -3 192 -2 0 -1060 0 -1060 580 0 580 0 0 1060 0 1060 1103 0 c1059 0
1107 -1 1179 -19 139 -36 261 -112 373 -233 166 -180 308 -461 374 -745 47
-201 53 -279 58 -710 l5 -413 575 0 575 0 -5 458 c-3 341 -9 486 -21 571 -88
636 -310 1137 -701 1584 l-76 88 55 60 c325 350 576 848 675 1334 58 285 63
342 68 843 l5 462 -2701 0 -2701 0 0 -1065z m4180 -105 c0 -5 -16 -58 -36
-117 -43 -131 -134 -320 -205 -428 -64 -97 -233 -268 -311 -313 -79 -47 -185
-81 -281 -92 -46 -6 -540 -10 -1134 -10 l-1053 0 0 485 0 485 1510 0 c985 0
1510 -3 1510 -10z"/>
</g>
</svg>
